# AST/ASF file generated using VICON BodyLanguage
# -----------------------------------------------
:version 1.10
:name VICON
:units
  mass 1.0
  length 0.45
  angle deg
:documentation
   .ast/.asf automatically generated from VICON data using
   VICON BodyBuilder and BodyLanguage model FoxedUp or BRILLIANT.MOD
:root
   order TX TY TZ RX RY RZ
   axis XYZ
   position 0 0 0  
   orientation 0 0 0 
:bonedata
  begin
     id 1 
     name lhipjoint
     direction 0.660183 -0.676772 0.325788 
     length 2.75133 
     axis 0 0 0  XYZ
  end
  begin
     id 2 
     name lfemur
     direction 0.34202 -0.939693 0  
     length 7.70317  
     axis 0 0 20  XYZ
    dof rx ry rz
    limits (-160.0 20.0)
           (-70.0 70.0)
           (-60.0 70.0)
  end
  begin
     id 3 
     name ltibia
     direction 0.342105 -0.939662 0   
     length 7.18701   
     axis 0 0 20   XYZ
    dof rx
    limits (-10.0 170.0)
  end
  begin
     id 4 
     name lfoot
     direction 0.14163 -0.389126 0.910232   
     length 2.41719   
     axis -90 7.62852e-016 20   XYZ
    dof rx rz
    limits (-45.0 90.0)
           (-70.0 20.0)
  end
  begin
     id 5 
     name ltoes
     direction 1.53533e-011 -4.21926e-011 1   
     length 1.18611   
     axis -90 7.62852e-016 20   XYZ
    dof rx
    limits (-90.0 20.0)
  end
  begin
     id 6 
     name rhipjoint
     direction -0.6658 -0.67229 0.323631   
     length 2.76968  
     axis 0 0 0  XYZ 
  end
  begin
     id 7 
     name rfemur
     direction -0.34202 -0.939693 0   
     length 7.92547   
     axis 0 0 -20   XYZ
    dof rx ry rz
    limits (-160.0 20.0)
           (-70.0 70.0)
           (-70.0 60.0)
  end
  begin
     id 8 
     name rtibia
     direction -0.342022 -0.939692 0   
     length 7.22641   
     axis 0 0 -20   XYZ
    dof rx
    limits (-10.0 170.0)
 end
 begin
     id 9 
     name rfoot
     direction -0.105675 -0.29034 0.951071   
     length 2.48149  
     axis -90 -7.62852e-016 -20   XYZ
    dof rx rz
    limits (-45.0 90.0)
           (-20.0 70.0)
  end
  begin
     id 10 
     name rtoes
     direction -1.5349e-011 -4.21859e-011 1   
     length 1.23343   
     axis -90 -7.62852e-016 -20   XYZ
    dof rx
    limits (-90.0 20.0)
  end
  begin
     id 11 
     name lowerback
     direction 0.0104173 0.993624 -0.112266   
     length 2.00527   
     axis 0 0 0   XYZ
    dof rx ry rz
    limits (-20.0 45.0)
           (-30.0 30.0)
           (-30.0 30.0)
  end
  begin
     id 12 
     name upperback
     direction 0.00733149 0.999856 -0.0152913   
     length 2.01385   
     axis 0 0 0   XYZ
    dof rx ry rz
    limits (-20.0 45.0)
           (-30.0 30.0)
           (-30.0 30.0)
  end
  begin
     id 13 
     name thorax
     direction 0.0026304 0.999318 0.036841   
     length 2.03734   
     axis 0 0 0   XYZ
    dof rx ry rz
    limits (-20.0 45.0)
           (-30.0 30.0)
           (-30.0 30.0)
  end
  begin
     id 14 
     name lowerneck
     direction 0.0293154 0.998757 0.0403082   
     length 1.65303   
     axis 0 0 0   XYZ
    dof rx ry rz
    limits (-20.0 45.0)
           (-30.0 30.0)
           (-30.0 30.0)
  end
  begin
     id 15 
     name upperneck
     direction -0.0376619 0.998184 -0.0470083   
     length 1.60926   
     axis 0 0 0   XYZ
    dof rx ry rz
    limits (-20.0 45.0)
           (-30.0 30.0)
           (-30.0 30.0)
  end
  begin
     id 16
     name head
     direction -0.0170133 0.999635 -0.0209778  
     length 1.73625  
     axis 0 0 0   XYZ
    dof rx ry rz
    limits (-20.0 45.0)
           (-30.0 30.0)
           (-30.0 30.0)
  end
  begin
     id 17 
     name lclavicle
     direction 0.919857 0.39181 -0.0186333  
     length 3.75313  
     axis 0 0 0   XYZ
    dof ry rz
    limits (-20.0 10.0)
           (0.0 20.0)
  end
  begin
     id 18 
     name lhumerus
     direction 1 -4.48988e-011 1.44029e-027   
     length 5.49313   
     axis 180 -30 -90   XYZ
    dof rx ry rz
    limits (-60.0 90.0)
           (-90.0 90.0)
           (-90.0 90.0)
  end
  begin
     id 19
     name lradius
     direction 1 -4.48924e-011 7.46281e-027   
     length 3.29037   
     axis 180 -30 -90   XYZ
    dof rx
    limits (-10.0 170.0)
  end
  begin
     id 20
     name lwrist
     direction 1 -4.48955e-011 2.19879e-026   
     length 1.64519   
     axis -1.34358e-014 90 90   XYZ
    dof ry
    limits (-180.0 0.0)
 end
  begin
     id 21 
     name lhand
     direction 1 -4.48978e-011 4.39747e-026   
     length 0.729656   
     axis -2.80598e-014 90 90   XYZ
    dof rx rz
    limits (-90.0 90.0)
           (-45.0 45.0)
  end
  begin
     id 22 
     name lfingers
     direction 1 -4.49071e-011 8.79411e-026   
     length 0.588268   
     axis -5.61193e-014 90 90   XYZ
    dof rx
    limits (0.0 90.0)
  end
  begin
     id 23
     name lthumb
     direction 0.707107 -6.34817e-011 0.707107   
     length 0.844638   
     axis -90 45 -9.86923e-015   XYZ
    dof rx rz
    limits (-45.0 45.0)
           (-45.0 45.0)
  end
  begin
     id 24 
     name rclavicle
     direction -0.919898 0.388279 0.0550233   
     length 3.7171  
     axis 0 0 0   XYZ 
    dof ry rz
    limits (-10.0 20.0)
           (-20.0 0.0)
  end
  begin
     id 25 
     name rhumerus
     direction -1 -4.48968e-011 9.98372e-028  
     length 5.23684   
     axis 180 30 90   XYZ
    dof rx ry rz
    limits (-90.0 60.0)
           (-90.0 90.0)
           (-90.0 90.0)
  end
  begin
     id 26 
     name rradius
     direction -1 -4.48956e-011 1.01023e-026   
     length 3.38251   
     axis 180 30 90   XYZ
    dof rx
    limits (-10.0 170.0)
  end
  begin
     id 27 
     name rwrist
     direction -1 -4.4892e-011 2.19886e-026   
     length 1.69126   
     axis -1.34358e-014 -90 -90   XYZ
    dof ry
    limits (-180.0 0.0)
  end
  begin
     id 28
     name rhand
     direction -1 -4.49024e-011 4.39727e-026   
     length 0.691454   
     axis -2.80598e-014 -90 -90   XYZ
    dof rx rz
    limits (-90.0 90.0)
           (-45.0 45.0)
  end
  begin
     id 29
     name rfingers
     direction -1 -4.49097e-011 8.79388e-026   
     length 0.557468   
     axis -5.61193e-014 -90 -90   XYZ
    dof rx
    limits (0.0 90.0)
  end
  begin
     id 30
     name rthumb
     direction -0.707107 -6.34938e-011 0.707107   
     length 0.800416   
     axis -90 -45 9.86923e-015   XYZ
    dof rx rz
    limits (-45.0 45.0)
           (-45.0 45.0)
  end
:hierarchy
  begin
    root lhipjoint rhipjoint lowerback
    lhipjoint lfemur
    lfemur ltibia
    ltibia lfoot
    lfoot ltoes
    rhipjoint rfemur
    rfemur rtibia
    rtibia rfoot
    rfoot rtoes
    lowerback upperback
    upperback thorax
    thorax lowerneck lclavicle rclavicle
    lowerneck upperneck
    upperneck head
    lclavicle lhumerus
    lhumerus lradius
    lradius lwrist
    lwrist lhand lthumb
    lhand lfingers
    rclavicle rhumerus
    rhumerus rradius
    rradius rwrist
    rwrist rhand rthumb
    rhand rfingers
  end

#!OML:ASF H:\BabyWalks\Project 1\Capture day 1\Session 1\baby.ASF
:FULLY-SPECIFIED
:DEGREES
163
root -8.72588 17.5315 -21.9035 -37.9692 79.6296 -41.3184
lowerback 18.439 0.804088 0.407733
upperback 4.6151 1.3619 -0.0530645
thorax -5.34569 0.761073 -0.604683
lowerneck -3.86261 0.424366 5.32539
upperneck -2.15562 0.41436 0.461297
head -0.0135813 0.193736 -0.731859
rclavicle 3.4191e-014 0
rhumerus -54.6249 10.9752 -86.3835
rradius 54.1235
rwrist -8.0704
rhand -15.3088 -17.5866
rfingers 7.12502
rthumb 10.8669 -47.2854
lclavicle 3.4191e-014 0
lhumerus -61.7946 -12.8715 83.102
lradius 48.281
lwrist 1.38036
lhand 15.1609 12.0951
lfingers 7.12502
lthumb 40.0031 37.3202
rfemur 5.27287 12.0659 26.7297
rtibia 35.2578
rfoot -2.67691 17.4348
rtoes -9.0545
lfemur -28.9513 -0.698721 -7.85548
ltibia 42.1777
lfoot -18.96 -5.19994
ltoes -3.51064
164
root -8.57137 17.5021 -21.9143 -35.5901 79.8173 -38.6461
lowerback 18.6985 0.784116 -0.281867
upperback 4.80738 1.20533 -0.286626
thorax -5.28694 0.696372 -0.429139
lowerneck -3.7346 0.559504 5.35579
upperneck -2.46697 0.61547 0.653126
head -0.126159 0.290073 -0.675125
rclavicle 6.75868e-015 -1.43125e-014
rhumerus -54.5326 10.58 -86.325
rradius 53.1047
rwrist -7.45122
rhand -16.2439 -18.2454
rfingers 7.12502
rthumb 9.96488 -47.9895
lclavicle 6.75868e-015 -1.43125e-014
lhumerus -60.2819 -13.4862 82.6793
lradius 47.7651
lwrist 0.704803
lhand 13.8902 11.2457
lfingers 7.12502
lthumb 38.806 36.821
rfemur 4.09382 12.263 25.9434
rtibia 38.4262
rfoot -1.73751 18.0192
rtoes -8.93678
lfemur -28.4247 -0.490171 -8.5672
ltibia 42.8894
lfoot -19.8498 -5.31942
ltoes -3.30156
165
root -8.41912 17.4787 -21.922 -33.2032 80.0017 -36.0546
lowerback 18.8739 0.775086 -0.903575
upperback 4.97892 1.07285 -0.535134
thorax -5.2013 0.641578 -0.311724
lowerneck -3.59642 0.667136 5.38166
upperneck -2.75113 0.781462 0.854851
head -0.233002 0.368759 -0.615756
rclavicle 1.59028e-015 2.38542e-014
rhumerus -54.4595 10.1575 -86.3248
rradius 52.0663
rwrist -6.81126
rhand -17.1917 -18.9453
rfingers 7.12502
rthumb 9.05038 -48.7312
lclavicle 1.59028e-015 2.38542e-014
lhumerus -58.5986 -14.1789 82.1558
lradius 47.1657
lwrist -0.238436
lhand 12.627 10.2621
lfingers 7.12502
lthumb 37.6135 36.1655
rfemur 2.82108 12.4356 25.1697
rtibia 41.4785
rfoot -1.06224 18.4301
rtoes -8.67523
lfemur -27.9129 -0.176819 -9.26478
ltibia 43.4267
lfoot -20.6577 -5.48455
ltoes -3.09337
166
root -8.26959 17.4611 -21.9271 -30.9976 80.1735 -33.7419
lowerback 18.9792 0.763953 -1.42378
upperback 5.11553 0.955148 -0.784357
thorax -5.11256 0.59175 -0.255121
lowerneck -3.43737 0.753641 5.42036
upperneck -3.00999 0.920116 1.03439
head -0.336052 0.433328 -0.56647
rclavicle -1.94809e-014 9.54166e-015
rhumerus -54.4176 9.73071 -86.3834
rradius 51.0231
rwrist -6.13519
rhand -18.0588 -19.6414
rfingers 7.12502
rthumb 8.21357 -49.4617
lclavicle -1.94809e-014 9.54166e-015
lhumerus -56.761 -14.8678 81.4935
lradius 46.5105
lwrist -1.49453
lhand 11.3978 9.17895
lfingers 7.12502
lthumb 36.4509 35.3834
rfemur 1.45619 12.5715 24.451
rtibia 44.3842
rfoot -0.727412 18.6623
rtoes -8.37928
lfemur -27.44 0.21487 -9.89997
ltibia 43.8072
lfoot -21.3969 -5.75318
ltoes -2.85135
167
root -8.12289 17.4494 -21.9299 -28.9829 80.3526 -31.7087
lowerback 19.0392 0.737495 -1.85351
upperback 5.2114 0.832916 -1.03312
thorax -5.0411 0.537891 -0.248097
lowerneck -3.26551 0.831673 5.46935
upperneck -3.2406 1.04771 1.1961
head -0.432797 0.492141 -0.525152
rclavicle -4.37326e-015 -1.35174e-014
rhumerus -54.4053 9.31638 -86.5
rradius 49.9736
rwrist -5.37043
rhand -18.7734 -20.2811
rfingers 7.12502
rthumb 7.52389 -50.1273
lclavicle -4.37326e-015 -1.35174e-014
lhumerus -54.7845 -15.462 80.6566
lradius 45.8374
lwrist -3.0695
lhand 10.1969 8.02321
lfingers 7.12502
lthumb 35.3131 34.5056
rfemur 0.0143135 12.6558 23.7796
rtibia 47.1206
rfoot -0.69289 18.7661
rtoes -7.96111
lfemur -27.0098 0.644674 -10.4794
ltibia 44.0554
lfoot -22.0611 -6.07713
ltoes -2.58923
168
root -7.97951 17.4434 -21.9312 -27.068 80.5445 -29.8646
lowerback 19.0584 0.690706 -2.21194
upperback 5.26652 0.695961 -1.2813
thorax -4.99026 0.475448 -0.277465
lowerneck -3.08925 0.908821 5.52405
upperneck -3.44704 1.17403 1.34242
head -0.522994 0.550205 -0.490054
rclavicle 1.19271e-015 1.11319e-014
rhumerus -54.4232 8.92983 -86.6625
rradius 48.9469
rwrist -4.49362
rhand -19.2642 -20.8077
rfingers 7.12502
rthumb 7.05012 -50.6703
lclavicle 1.19271e-015 1.11319e-014
lhumerus -52.6631 -15.875 79.626
lradius 45.1739
lwrist -4.93457
lhand 9.0618 6.95069
lfingers 7.12502
lthumb 34.236 33.6818
rfemur -1.50038 12.6869 23.1321
rtibia 49.6306
rfoot -0.879926 18.8369
rtoes -7.47867
lfemur -26.6151 1.07991 -11.0168
ltibia 44.1384
lfoot -22.6255 -6.4473
ltoes -2.30546
